mtllib ItmHarisen.mtl

v 0.500000 4.903809 -0.975342
v -0.250000 0.000000 0.000244
v -0.500000 4.619385 -1.913330
v 0.250000 0.000000 0.000000
v -0.250000 0.000000 0.000244
v 0.500000 4.903809 -0.975342
v -0.500000 4.619385 -1.913330
v 0.250000 0.000000 0.000000
v -0.500000 5.000000 0.000000
v 0.250000 0.000000 0.000000
v 0.500000 4.903809 -0.975342
v -0.250000 0.000000 0.000000
v 0.250000 0.000000 0.000000
v -0.500000 5.000000 0.000000
v 0.500000 4.903809 -0.975342
v -0.250000 0.000000 0.000000
v 0.250000 0.000000 0.000244
v -0.500000 4.619385 -1.913330
v -0.250000 0.000000 0.000244
v 0.500000 4.157227 -2.777832
v -0.500000 4.619385 -1.913330
v 0.250000 0.000000 0.000244
v -0.250000 0.000000 0.000244
v 0.500000 4.157227 -2.777832
v -0.250000 0.000000 0.000488
v 0.500000 4.157227 -2.777832
v 0.250000 0.000000 0.000244
v -0.500000 3.535534 -3.535534
v 0.500000 4.157227 -2.777832
v -0.250000 0.000000 0.000488
v 0.250000 0.000000 0.000244
v -0.500000 3.535534 -3.535534
v 0.500000 4.903809 0.975342
v -0.250000 0.000000 0.000000
v -0.500000 5.000000 0.000000
v 0.250000 0.000000 0.000000
v -0.250000 0.000000 0.000000
v 0.500000 4.903809 0.975342
v -0.500000 5.000000 0.000000
v 0.250000 0.000000 0.000000
v -0.500000 4.619385 1.913330
v 0.250000 0.000000 0.000000
v 0.500000 4.903809 0.975342
v -0.250000 0.000000 -0.000244
v 0.250000 0.000000 0.000000
v -0.500000 4.619385 1.913330
v 0.500000 4.903809 0.975342
v -0.250000 0.000000 -0.000244
v 0.250000 0.000000 -0.000244
v -0.500000 3.535487 3.535521
v -0.250000 0.000000 -0.000488
v 0.500000 4.157227 2.777832
v -0.500000 3.535487 3.535521
v 0.250000 0.000000 -0.000244
v -0.250000 0.000000 -0.000488
v 0.500000 4.157227 2.777832
v -0.250000 0.000000 -0.000244
v 0.500000 4.157227 2.777832
v 0.250000 0.000000 -0.000244
v -0.500000 4.619385 1.913330
v 0.500000 4.157227 2.777832
v -0.250000 0.000000 -0.000244
v 0.250000 0.000000 -0.000244
v -0.500000 4.619385 1.913330

vt 0.994690 0.986755
vt 0.505310 0.012390
vt 0.505310 0.986755
vt 0.994690 0.012390
vt 0.505310 0.012390
vt 0.994690 0.986755
vt 0.505310 0.986755
vt 0.994690 0.012390
vt 0.505310 0.986755
vt 0.994690 0.012390
vt 0.994690 0.986755
vt 0.505310 0.012390
vt 0.994690 0.012390
vt 0.505310 0.986755
vt 0.994690 0.986755
vt 0.505310 0.012390
vt 0.994690 0.012390
vt 0.505310 0.986755
vt 0.505310 0.012390
vt 0.994690 0.986755
vt 0.505310 0.986755
vt 0.994690 0.012390
vt 0.505310 0.012390
vt 0.994690 0.986755
vt 0.505310 0.012390
vt 0.994690 0.986755
vt 0.994690 0.012390
vt 0.505310 0.986755
vt 0.994690 0.986755
vt 0.505310 0.012390
vt 0.994690 0.012390
vt 0.505310 0.986755
vt 0.994690 0.986755
vt 0.505310 0.012390
vt 0.505310 0.986755
vt 0.994690 0.012390
vt 0.505310 0.012390
vt 0.994690 0.986755
vt 0.505310 0.986755
vt 0.994690 0.012390
vt 0.505310 0.986755
vt 0.994690 0.012390
vt 0.994690 0.986755
vt 0.505310 0.012390
vt 0.994690 0.012390
vt 0.505310 0.986755
vt 0.994690 0.986755
vt 0.505310 0.012390
vt 0.994690 0.012390
vt 0.505310 0.986755
vt 0.505310 0.012390
vt 0.994690 0.986755
vt 0.505310 0.986755
vt 0.994690 0.012390
vt 0.505310 0.012390
vt 0.994690 0.986755
vt 0.505310 0.012390
vt 0.994690 0.986755
vt 0.994690 0.012390
vt 0.505310 0.986755
vt 0.994690 0.986755
vt 0.505310 0.012390
vt 0.994690 0.012390
vt 0.505310 0.986755

vn 0.378534 -0.235958 -0.895006
vn 0.378534 -0.235958 -0.895006
vn 0.699560 -0.240836 -0.672766
vn -0.000183 -0.195130 -0.980777
vn -0.378534 0.235958 0.895006
vn -0.378534 0.235958 0.895006
vn -0.699560 0.240836 0.672766
vn 0.000183 0.195130 0.980777
vn 0.378544 0.056824 0.923837
vn 0.378544 0.056824 0.923837
vn 0.699563 0.104916 0.706826
vn -0.000183 0.000000 1.000000
vn -0.378544 -0.056824 -0.923837
vn -0.378544 -0.056824 -0.923837
vn -0.699563 -0.104916 -0.706826
vn 0.000183 0.000000 -1.000000
vn 0.378530 0.406056 0.831765
vn 0.378530 0.406056 0.831765
vn -0.000183 0.382686 0.923878
vn 0.699564 0.367482 0.612836
vn -0.378530 -0.406056 -0.831765
vn -0.378530 -0.406056 -0.831765
vn 0.000183 -0.382686 -0.923878
vn -0.699564 -0.367482 -0.612836
vn 0.378545 -0.560493 -0.736581
vn 0.378545 -0.560493 -0.736581
vn -0.000183 -0.555615 -0.831439
vn 0.699560 -0.479991 -0.529362
vn -0.378545 0.560493 0.736581
vn -0.378545 0.560493 0.736581
vn 0.000183 0.555615 0.831439
vn -0.699560 0.479991 0.529362
vn 0.378536 0.124571 -0.917165
vn 0.378536 0.124571 -0.917165
vn 0.699560 0.034911 -0.713720
vn -0.000183 0.195130 -0.980777
vn -0.378536 -0.124571 0.917165
vn -0.378536 -0.124571 0.917165
vn -0.699560 -0.034911 0.713720
vn 0.000183 -0.195130 0.980777
vn 0.378540 -0.301087 0.875245
vn 0.378540 -0.301087 0.875245
vn 0.699570 -0.173580 0.693161
vn -0.000183 -0.382738 0.923857
vn -0.378540 0.301087 -0.875245
vn -0.378540 0.301087 -0.875245
vn -0.699570 0.173580 -0.693161
vn 0.000183 0.382738 -0.923857
vn 0.378553 -0.613120 0.693384
vn 0.378544 -0.613136 0.693375
vn -0.000122 -0.707137 0.707076
vn 0.699567 -0.425648 0.573960
vn -0.378544 0.613136 -0.693375
vn -0.378553 0.613120 -0.693384
vn 0.000122 0.707137 -0.707076
vn -0.699567 0.425648 -0.573960
vn 0.378540 0.466064 -0.799682
vn 0.378540 0.466064 -0.799682
vn -0.000183 0.555615 -0.831439
vn 0.699568 0.305474 -0.645980
vn -0.378540 -0.466064 0.799682
vn -0.378540 -0.466064 0.799682
vn 0.000183 -0.555615 0.831439
vn -0.699568 -0.305474 0.645980

g polygon0
s 1
usemtl mat1
f 1/1/1 2/2/2 3/3/3
f 1/1/1 4/4/4 2/2/2
f 5/5/5 6/6/6 7/7/7
f 5/5/5 8/8/8 6/6/6
f 9/9/9 10/10/10 11/11/11
f 9/9/9 12/12/12 10/10/10
f 13/13/13 14/14/14 15/15/15
f 13/13/13 16/16/16 14/14/14
f 17/17/17 18/18/18 19/19/19
f 17/17/17 20/20/20 18/18/18
f 21/21/21 22/22/22 23/23/23
f 21/21/21 24/24/24 22/22/22
f 25/25/25 26/26/26 27/27/27
f 25/25/25 28/28/28 26/26/26
f 29/29/29 30/30/30 31/31/31
f 29/29/29 32/32/32 30/30/30
f 33/33/33 34/34/34 35/35/35
f 33/33/33 36/36/36 34/34/34
f 37/37/37 38/38/38 39/39/39
f 37/37/37 40/40/40 38/38/38
f 41/41/41 42/42/42 43/43/43
f 41/41/41 44/44/44 42/42/42
f 45/45/45 46/46/46 47/47/47
f 45/45/45 48/48/48 46/46/46
f 49/49/49 50/50/50 51/51/51
f 49/49/49 52/52/52 50/50/50
f 53/53/53 54/54/54 55/55/55
f 53/53/53 56/56/56 54/54/54
f 57/57/57 58/58/58 59/59/59
f 57/57/57 60/60/60 58/58/58
f 61/61/61 62/62/62 63/63/63
f 61/61/61 64/64/64 62/62/62

v 0.297485 0.000000 -0.187500
v -0.224976 -2.000000 -0.099976
v -0.297485 0.000000 -0.187500
v 0.224976 -2.000000 -0.099976
v 0.297485 0.000000 0.187500
v 0.224976 -2.000000 0.099976
v -0.297485 0.000000 0.187500
v -0.224976 -2.000000 0.099976
v -0.297485 0.000000 0.187500
v 0.297485 0.000000 -0.187500
v -0.297485 0.000000 -0.187500
v 0.297485 0.000000 0.187500

vt 0.008850 0.986725
vt 0.116669 0.013275
vt 0.008850 0.986725
vt 0.116669 0.013275
vt 0.495575 0.986725
vt 0.383331 0.013275
vt 0.495575 0.986725
vt 0.383331 0.013275
vt 0.493378 0.013275
vt 0.008850 0.013275
vt 0.008850 0.013275
vt 0.493378 0.013275

vn 0.592522 0.545744 -0.592522
vn -0.561336 -0.608114 -0.561336
vn -0.592522 0.545744 -0.592522
vn 0.561336 -0.608114 -0.561336
vn 0.592522 0.545744 0.592522
vn 0.561336 -0.608114 0.561336
vn -0.592522 0.545744 0.592522
vn -0.561336 -0.608114 0.561336
vn -0.592522 0.545744 0.592522
vn 0.592522 0.545744 -0.592522
vn -0.592522 0.545744 -0.592522
vn 0.592522 0.545744 0.592522

g polygon1
s 1
usemtl mat1
f 65/65/65 66/66/66 67/67/67
f 65/65/65 68/68/68 66/66/66
f 69/69/69 68/68/68 65/65/65
f 69/69/69 70/70/70 68/68/68
f 71/71/71 70/70/70 69/69/69
f 71/71/71 72/72/72 70/70/70
f 67/67/67 72/72/72 71/71/71
f 67/67/67 66/66/66 72/72/72
f 73/73/73 74/74/74 75/75/75
f 73/73/73 76/76/76 74/74/74
f 70/70/70 66/66/66 68/68/68
f 70/70/70 72/72/72 66/66/66

